<svg width="25" height="25" viewBox="0 0 25 25" fill="none" xmlns="http://www.w3.org/2000/svg">
<rect width="25" height="25" rx="12.1106" fill="#4CBB17" fill-opacity="0.2"/>
<path d="M11.1422 13.7436L18.5788 6.30708M11.1422 13.7436L13.5084 18.476C13.538 18.5407 13.5857 18.5956 13.6456 18.634C13.7055 18.6725 13.7752 18.6929 13.8464 18.6929C13.9176 18.6929 13.9873 18.6725 14.0472 18.634C14.1072 18.5956 14.1548 18.5407 14.1844 18.476L18.5788 6.30708M11.1422 13.7436L6.40985 11.3775C6.34512 11.3478 6.29027 11.3002 6.25182 11.2403C6.21337 11.1803 6.19292 11.1106 6.19292 11.0394C6.19292 10.9682 6.21337 10.8985 6.25182 10.8386C6.29027 10.7787 6.34512 10.7311 6.40985 10.7014L18.5788 6.30708" stroke="black" stroke-linecap="round" stroke-linejoin="round"/>
</svg>
