<svg width="25" height="25" viewBox="0 0 25 25" fill="none" xmlns="http://www.w3.org/2000/svg">
<rect width="25" height="25" rx="12.1106" fill="#4CBB17" fill-opacity="0.2"/>
<path fill-rule="evenodd" clip-rule="evenodd" d="M6.61022 16.0107V17.608C6.61022 17.8199 6.69079 18.023 6.83421 18.1728C6.97763 18.3226 7.17214 18.4067 7.37497 18.4067H18.8462C19.049 18.4067 19.2435 18.3226 19.3869 18.1728C19.5304 18.023 19.6109 17.8199 19.6109 17.608V11.2185C19.6109 11.0067 19.5304 10.8035 19.3869 10.6538C19.2435 10.504 19.049 10.4198 18.8462 10.4198H17.8941V11.885C17.999 12.0481 18.1407 12.1818 18.3067 12.2742C18.4728 12.3666 18.658 12.4149 18.8462 12.415V16.41C18.5431 16.4118 18.253 16.5388 18.0392 16.7633C17.8255 16.9878 17.7056 17.2915 17.7056 17.608H8.52018C8.51636 17.2932 8.39403 16.9926 8.17964 16.7713C7.96526 16.5499 7.67606 16.4256 7.37459 16.4252V16.0107H6.61022ZM10.629 12.0172C10.8318 12.0172 11.0263 11.9331 11.1697 11.7833C11.3131 11.6335 11.3937 11.4303 11.3937 11.2185C11.3937 11.0067 11.3131 10.8035 11.1697 10.6538C11.0263 10.504 10.8318 10.4198 10.629 10.4198C10.4261 10.4198 10.2316 10.504 10.0882 10.6538C9.94479 10.8035 9.86422 11.0067 9.86422 11.2185C9.86422 11.4303 9.94479 11.6335 10.0882 11.7833C10.2316 11.9331 10.4261 12.0172 10.629 12.0172ZM10.629 12.8159C11.0346 12.8159 11.4236 12.6476 11.7105 12.348C11.9973 12.0485 12.1585 11.6422 12.1585 11.2185C12.1585 10.7949 11.9973 10.3886 11.7105 10.089C11.4236 9.78943 11.0346 9.62113 10.629 9.62113C10.2233 9.62113 9.83429 9.78943 9.54745 10.089C9.26062 10.3886 9.09947 10.7949 9.09947 11.2185C9.09947 11.6422 9.26062 12.0485 9.54745 12.348C9.83429 12.6476 10.2233 12.8159 10.629 12.8159Z" fill="black"/>
<path fill-rule="evenodd" clip-rule="evenodd" d="M4.89336 7.22508C4.69054 7.22508 4.49602 7.30923 4.35261 7.45901C4.20919 7.60879 4.12862 7.81194 4.12862 8.02377V14.4133C4.12862 14.6251 4.20919 14.8283 4.35261 14.9781C4.49602 15.1278 4.69054 15.212 4.89336 15.212H16.3646C16.5674 15.212 16.7619 15.1278 16.9053 14.9781C17.0488 14.8283 17.1293 14.6251 17.1293 14.4133V8.02377C17.1293 7.81194 17.0488 7.60879 16.9053 7.45901C16.7619 7.30923 16.5674 7.22508 16.3646 7.22508H4.89336ZM6.03972 8.02377H15.2178C15.2182 8.34116 15.3392 8.64542 15.5542 8.86973C15.7692 9.09405 16.0607 9.2201 16.3646 9.22021V13.2153C16.0615 13.2171 15.7714 13.3441 15.5576 13.5685C15.3439 13.793 15.2239 14.0967 15.224 14.4133H6.03896C6.03514 14.0985 5.91281 13.7979 5.69842 13.5765C5.48404 13.3551 5.19483 13.2308 4.89336 13.2304V9.2218C5.19747 9.22159 5.48904 9.09528 5.70401 8.87063C5.91897 8.64597 6.03972 8.34137 6.03972 8.02377Z" fill="black"/>
</svg>
