<svg width="25" height="25" viewBox="0 0 25 25" fill="none" xmlns="http://www.w3.org/2000/svg">
<rect width="25" height="25" rx="12.1106" fill="#4CBB17" fill-opacity="0.2"/>
<path d="M12.3858 11.8119C12.7643 11.8119 13.0884 11.6773 13.3581 11.408C13.6279 11.1387 13.7625 10.8146 13.7621 10.4357C13.7616 10.0568 13.627 9.73291 13.3581 9.46409C13.0893 9.19527 12.7652 9.0604 12.3858 9.05948C12.0065 9.05857 11.6826 9.19343 11.4142 9.46409C11.1459 9.73474 11.011 10.0586 11.0096 10.4357C11.0083 10.8128 11.1431 11.1369 11.4142 11.408C11.6854 11.6791 12.0092 11.8137 12.3858 11.8119ZM8.94533 11.6743V9.05948H7.56913V9.74759C7.56913 10.1834 7.69528 10.5763 7.94759 10.9263C8.19989 11.2763 8.53247 11.5256 8.94533 11.6743ZM15.8264 11.6743C16.2392 11.5252 16.5718 11.2756 16.8241 10.9256C17.0764 10.5756 17.2026 10.1829 17.2026 9.74759V9.05948H15.8264V11.6743ZM11.6977 17.3167V15.1836C11.1358 15.0574 10.6342 14.8196 10.1929 14.47C9.75156 14.1205 9.42747 13.6817 9.22058 13.1537C8.36045 13.0505 7.64092 12.675 7.062 12.0273C6.48307 11.3795 6.19338 10.6196 6.19292 9.74759V9.05948C6.19292 8.68103 6.32779 8.35716 6.59753 8.08788C6.86726 7.81861 7.19113 7.68374 7.56913 7.68328H8.94533C8.94533 7.30482 9.0802 6.98096 9.34994 6.71168C9.61967 6.4424 9.94354 6.30753 10.3215 6.30708H14.4502C14.8286 6.30708 15.1527 6.44194 15.4224 6.71168C15.6922 6.98142 15.8268 7.30528 15.8264 7.68328H17.2026C17.581 7.68328 17.9051 7.81815 18.1749 8.08788C18.4446 8.35762 18.5792 8.68149 18.5788 9.05948V9.74759C18.5788 10.6192 18.2891 11.3791 17.7097 12.0273C17.1303 12.6755 16.4108 13.0509 15.5511 13.1537C15.3447 13.6812 15.0208 14.12 14.5795 14.47C14.1382 14.82 13.6364 15.0579 13.0739 15.1836V17.3167H15.1383C15.3332 17.3167 15.4968 17.3828 15.6289 17.5149C15.761 17.647 15.8268 17.8103 15.8264 18.0048C15.8259 18.1993 15.7598 18.3629 15.6282 18.4954C15.4965 18.628 15.3332 18.6938 15.1383 18.6929H9.63344C9.43847 18.6929 9.27516 18.6269 9.14351 18.4947C9.01185 18.3626 8.94579 18.1993 8.94533 18.0048C8.94488 17.8103 9.01093 17.647 9.14351 17.5149C9.27608 17.3828 9.43939 17.3167 9.63344 17.3167H11.6977Z" fill="black"/>
</svg>
