<svg width="280" height="35" viewBox="0 0 280 35" fill="none" xmlns="http://www.w3.org/2000/svg">
<path d="M35 17.6069C35 7.88296 27.1649 0 17.5 0C7.83508 0 0 7.88296 0 17.6069C0 26.395 6.39953 33.6792 14.7656 35V22.6965H10.3223V17.6069H14.7656V13.7279C14.7656 9.31518 17.3783 6.87771 21.3757 6.87771C23.2903 6.87771 25.293 7.2216 25.293 7.2216V11.5546H23.0863C20.9124 11.5546 20.2344 12.9118 20.2344 14.3043V17.6069H25.0879L24.312 22.6965H20.2344V35C28.6005 33.6792 35 26.3952 35 17.6069Z" fill="#1877F2"/>
<mask id="mask0_177_244" style="mask-type:luminance" maskUnits="userSpaceOnUse" x="60" y="0" width="35" height="35">
<path d="M60 0H95V35H60V0Z" fill="white"/>
</mask>
<g mask="url(#mask0_177_244)">
<path d="M87.5625 1.64014H92.93L81.205 15.0751L95 33.3601H84.2L75.735 22.2726L66.06 33.3601H60.6875L73.2275 18.9851L60 1.64264H71.075L78.715 11.7751L87.5625 1.64014ZM85.675 30.1401H88.65L69.45 4.69264H66.26L85.675 30.1401Z" fill="black"/>
</g>
<path d="M146.797 0H128.203C123.673 0 120 3.67266 120 8.20312V26.7969C120 31.3273 123.673 35 128.203 35H146.797C151.327 35 155 31.3273 155 26.7969V8.20312C155 3.67266 151.327 0 146.797 0Z" fill="url(#paint0_radial_177_244)"/>
<path d="M146.797 0H128.203C123.673 0 120 3.67266 120 8.20312V26.7969C120 31.3273 123.673 35 128.203 35H146.797C151.327 35 155 31.3273 155 26.7969V8.20312C155 3.67266 151.327 0 146.797 0Z" fill="url(#paint1_radial_177_244)"/>
<path d="M137.501 3.82812C133.788 3.82812 133.322 3.84439 131.864 3.9107C130.408 3.97742 129.415 4.20779 128.546 4.5459C127.646 4.89508 126.884 5.36225 126.124 6.1224C125.363 6.88242 124.896 7.64518 124.546 8.5441C124.207 9.41363 123.976 10.4076 123.91 11.8624C123.845 13.3208 123.828 13.787 123.828 17.5001C123.828 21.2133 123.845 21.6779 123.911 23.1361C123.978 24.5916 124.208 25.5851 124.546 26.4544C124.895 27.3537 125.363 28.1165 126.123 28.8764C126.882 29.6369 127.645 30.1052 128.544 30.4544C129.414 30.7925 130.407 31.0229 131.863 31.0896C133.321 31.1559 133.787 31.1721 137.5 31.1721C141.213 31.1721 141.678 31.1559 143.136 31.0896C144.591 31.0229 145.586 30.7925 146.456 30.4544C147.355 30.1052 148.116 29.6369 148.876 28.8764C149.637 28.1165 150.104 27.3537 150.454 26.4548C150.79 25.5851 151.021 24.5913 151.089 23.1364C151.155 21.6781 151.172 21.2133 151.172 17.5001C151.172 13.787 151.155 13.3211 151.089 11.8627C151.021 10.4072 150.79 9.41377 150.454 8.54451C150.104 7.64518 149.637 6.88242 148.876 6.1224C148.116 5.36197 147.355 4.8948 146.455 4.54604C145.583 4.20779 144.589 3.97729 143.134 3.9107C141.676 3.84439 141.211 3.82812 137.497 3.82812H137.501ZM136.275 6.29193C136.639 6.29139 137.045 6.29193 137.501 6.29193C141.152 6.29193 141.584 6.30506 143.026 6.37055C144.359 6.43152 145.082 6.65424 145.564 6.84141C146.202 7.08914 146.657 7.38541 147.136 7.86406C147.614 8.34258 147.91 8.79826 148.159 9.43633C148.346 9.91758 148.569 10.6411 148.629 11.9741C148.695 13.4154 148.709 13.8482 148.709 17.497C148.709 21.1457 148.695 21.5787 148.629 23.0199C148.568 24.3529 148.346 25.0764 148.159 25.5578C147.911 26.1959 147.614 26.6502 147.136 27.1284C146.657 27.6069 146.203 27.9031 145.564 28.1509C145.083 28.3389 144.359 28.5611 143.026 28.6221C141.585 28.6876 141.152 28.7018 137.501 28.7018C133.851 28.7018 133.418 28.6876 131.977 28.6221C130.644 28.5605 129.92 28.3378 129.438 28.1507C128.8 27.9028 128.344 27.6067 127.866 27.1281C127.387 26.6496 127.091 26.195 126.842 25.5567C126.655 25.0753 126.432 24.3518 126.372 23.0188C126.306 21.5775 126.293 21.1446 126.293 17.4936C126.293 13.8425 126.306 13.412 126.372 11.9707C126.433 10.6377 126.655 9.91416 126.842 9.43223C127.09 8.79416 127.387 8.33848 127.866 7.85996C128.344 7.38145 128.8 7.08518 129.438 6.83689C129.92 6.64891 130.644 6.42674 131.977 6.36549C133.238 6.30848 133.727 6.29139 136.275 6.28852V6.29193ZM144.799 8.56201C143.894 8.56201 143.159 9.29619 143.159 10.2021C143.159 11.1079 143.894 11.8427 144.799 11.8427C145.705 11.8427 146.44 11.1079 146.44 10.2021C146.44 9.29633 145.705 8.56146 144.799 8.56146V8.56201ZM137.501 10.4789C133.624 10.4789 130.48 13.6227 130.48 17.5001C130.48 21.3776 133.624 24.5198 137.501 24.5198C141.379 24.5198 144.521 21.3776 144.521 17.5001C144.521 13.6228 141.378 10.4789 137.501 10.4789H137.501ZM137.501 12.9428C140.018 12.9428 142.059 14.983 142.059 17.5001C142.059 20.017 140.018 22.0575 137.501 22.0575C134.984 22.0575 132.944 20.017 132.944 17.5001C132.944 14.983 134.984 12.9428 137.501 12.9428Z" fill="white"/>
<path d="M206.797 0H188.203C183.673 0 180 3.67266 180 8.20312V26.7969C180 31.3273 183.673 35 188.203 35H206.797C211.327 35 215 31.3273 215 26.7969V8.20312C215 3.67266 211.327 0 206.797 0Z" fill="white"/>
<path d="M206.797 0H188.203C183.673 0 180 3.67266 180 8.20312V26.7969C180 31.3273 183.673 35 188.203 35H206.797C211.327 35 215 31.3273 215 26.7969V8.20312C215 3.67266 211.327 0 206.797 0Z" fill="#0A66C2"/>
<path d="M205.254 29.7616H209.256C209.401 29.7616 209.54 29.704 209.642 29.6015C209.745 29.499 209.803 29.3599 209.803 29.2149L209.805 20.7599C209.805 16.3408 208.852 12.944 203.688 12.944C201.725 12.871 199.874 13.883 198.875 15.5728C198.87 15.581 198.862 15.5874 198.854 15.591C198.845 15.5946 198.835 15.5952 198.826 15.5927C198.816 15.5902 198.808 15.5847 198.802 15.5772C198.797 15.5696 198.793 15.5604 198.793 15.5508V13.8988C198.793 13.7538 198.736 13.6147 198.633 13.5121C198.531 13.4096 198.392 13.352 198.246 13.352H194.449C194.304 13.352 194.165 13.4096 194.062 13.5121C193.96 13.6147 193.902 13.7538 193.902 13.8988V29.2141C193.902 29.3591 193.96 29.4982 194.062 29.6008C194.165 29.7033 194.304 29.7609 194.449 29.7609H198.45C198.595 29.7609 198.734 29.7033 198.837 29.6008C198.94 29.4982 198.997 29.3591 198.997 29.2141V21.6435C198.997 19.5029 199.403 17.4299 202.057 17.4299C204.673 17.4299 204.707 19.8793 204.707 21.7822V29.2147C204.707 29.3598 204.765 29.4989 204.867 29.6014C204.97 29.704 205.109 29.7616 205.254 29.7616ZM185.195 8.15227C185.195 9.7743 186.531 11.1089 188.153 11.1089C189.775 11.1088 191.109 9.77334 191.109 8.15158C191.109 6.52982 189.774 5.19531 188.152 5.19531C186.53 5.19531 185.195 6.53023 185.195 8.15227ZM186.147 29.7616H190.154C190.299 29.7616 190.438 29.704 190.54 29.6014C190.643 29.4989 190.7 29.3598 190.7 29.2147V13.8988C190.7 13.7538 190.643 13.6147 190.54 13.5121C190.438 13.4096 190.299 13.352 190.154 13.352H186.147C186.002 13.352 185.863 13.4096 185.76 13.5121C185.657 13.6147 185.6 13.7538 185.6 13.8988V29.2147C185.6 29.3598 185.657 29.4989 185.76 29.6014C185.863 29.704 186.002 29.7616 186.147 29.7616Z" fill="white"/>
<path d="M279.117 9.69783C278.888 8.78981 278.44 7.96201 277.819 7.29684C277.198 6.63167 276.425 6.15235 275.577 5.9066C272.473 5 259.98 5 259.98 5C259.98 5 247.486 5.02744 244.382 5.93404C243.534 6.1798 242.761 6.65915 242.14 7.32435C241.519 7.98955 241.072 8.81739 240.842 9.72544C239.903 15.6319 239.539 24.632 240.868 30.3022C241.097 31.2102 241.545 32.038 242.166 32.7032C242.787 33.3683 243.56 33.8477 244.408 34.0934C247.512 35 260.006 35 260.006 35C260.006 35 272.499 35 275.603 34.0934C276.451 33.8477 277.224 33.3684 277.845 32.7032C278.466 32.038 278.913 31.2102 279.143 30.3022C280.133 24.3873 280.438 15.3928 279.117 9.69783Z" fill="#FF0000"/>
<path d="M256.004 26.4284L266.368 19.9998L256.004 13.5713V26.4284Z" fill="white"/>
<defs>
<radialGradient id="paint0_radial_177_244" cx="0" cy="0" r="1" gradientUnits="userSpaceOnUse" gradientTransform="translate(129.297 37.6957) rotate(-90) scale(34.6876 32.2622)">
<stop stop-color="#FFDD55"/>
<stop offset="0.1" stop-color="#FFDD55"/>
<stop offset="0.5" stop-color="#FF543E"/>
<stop offset="1" stop-color="#C837AB"/>
</radialGradient>
<radialGradient id="paint1_radial_177_244" cx="0" cy="0" r="1" gradientUnits="userSpaceOnUse" gradientTransform="translate(114.137 2.52123) rotate(78.681) scale(15.5055 63.9144)">
<stop stop-color="#3771C8"/>
<stop offset="0.128" stop-color="#3771C8"/>
<stop offset="1" stop-color="#6600FF" stop-opacity="0"/>
</radialGradient>
</defs>
</svg>
