<svg width="25" height="25" viewBox="0 0 25 25" fill="none" xmlns="http://www.w3.org/2000/svg">
<rect width="25" height="25" rx="12.1106" fill="#4CBB17" fill-opacity="0.2"/>
<g clip-path="url(#clip0_445_71)">
<path d="M13.418 7.72629C14.4022 7.72629 15.1014 7.72732 15.632 7.79854C16.1506 7.86821 16.45 7.99929 16.6683 8.21759C16.9196 8.46892 17.0295 8.664 17.0899 9.01132C17.158 9.40302 17.1596 9.9609 17.1596 10.9518C17.1596 11.0544 17.2003 11.1529 17.2729 11.2255C17.3455 11.298 17.444 11.3388 17.5466 11.3388C17.6493 11.3388 17.7477 11.298 17.8203 11.2255C17.8929 11.1529 17.9337 11.0544 17.9337 10.9518V10.9022C17.9337 9.97329 17.9337 9.34471 17.8521 8.87817C17.7618 8.35951 17.5688 8.02355 17.2158 7.67055C16.8293 7.28349 16.3395 7.11267 15.7347 7.03113C15.1463 6.95217 14.3955 6.95217 13.4469 6.95217H13.418C13.3153 6.95217 13.2169 6.99295 13.1443 7.06554C13.0717 7.13813 13.0309 7.23658 13.0309 7.33923C13.0309 7.44188 13.0717 7.54033 13.1443 7.61292C13.2169 7.68551 13.3153 7.72629 13.418 7.72629ZM7.22508 13.6612C7.32773 13.6612 7.42618 13.702 7.49877 13.7745C7.57136 13.8471 7.61214 13.9456 7.61214 14.0482C7.61214 15.0391 7.61368 15.597 7.68181 15.9887C7.7427 16.336 7.85211 16.5311 8.10344 16.7824C8.32174 17.0007 8.62107 17.1318 9.14024 17.2015C9.67077 17.2727 10.3695 17.2737 11.3537 17.2737C11.4563 17.2737 11.5548 17.3145 11.6274 17.3871C11.7 17.4597 11.7408 17.5581 11.7408 17.6608C11.7408 17.7634 11.7 17.8619 11.6274 17.9345C11.5548 18.007 11.4563 18.0478 11.3537 18.0478H11.3248C10.3762 18.0478 9.62484 18.0478 9.03702 17.9689C8.43218 17.8873 7.94243 17.716 7.55588 17.33C7.20289 16.9765 7.00987 16.6405 6.91956 16.1218C6.83802 15.6553 6.83802 15.0262 6.83802 14.0978V14.0482C6.83802 13.9456 6.8788 13.8471 6.95139 13.7745C7.02397 13.702 7.12242 13.6612 7.22508 13.6612ZM17.5466 13.6612C17.6493 13.6612 17.7477 13.702 17.8203 13.7745C17.8929 13.8471 17.9337 13.9456 17.9337 14.0482V14.0978C17.9337 15.0267 17.9337 15.6553 17.8521 16.1218C17.7618 16.6405 17.5688 16.9765 17.2158 17.3294C16.8293 17.7165 16.3395 17.8873 15.7347 17.9689C15.1463 18.0478 14.3955 18.0478 13.4469 18.0478H13.418C13.3153 18.0478 13.2169 18.007 13.1443 17.9345C13.0717 17.8619 13.0309 17.7634 13.0309 17.6608C13.0309 17.5581 13.0717 17.4597 13.1443 17.3871C13.2169 17.3145 13.3153 17.2737 13.418 17.2737C14.4022 17.2737 15.1014 17.2727 15.632 17.2015C16.1506 17.1318 16.45 17.0007 16.6683 16.7824C16.9196 16.5311 17.0295 16.336 17.0899 15.9887C17.158 15.597 17.1596 15.0391 17.1596 14.0482C17.1596 13.9456 17.2003 13.8471 17.2729 13.7745C17.3455 13.702 17.444 13.6612 17.5466 13.6612ZM11.3248 6.95217H11.3537C11.4563 6.95217 11.5548 6.99295 11.6274 7.06554C11.7 7.13813 11.7408 7.23658 11.7408 7.33923C11.7408 7.44188 11.7 7.54033 11.6274 7.61292C11.5548 7.68551 11.4563 7.72629 11.3537 7.72629C10.3695 7.72629 9.67077 7.72732 9.13972 7.79854C8.62107 7.86821 8.32174 7.99929 8.10344 8.21759C7.85211 8.46892 7.74219 8.664 7.68181 9.01132C7.61368 9.40302 7.61214 9.9609 7.61214 10.9518C7.61214 11.0544 7.57136 11.1529 7.49877 11.2255C7.42618 11.298 7.32773 11.3388 7.22508 11.3388C7.12242 11.3388 7.02397 11.298 6.95139 11.2255C6.8788 11.1529 6.83802 11.0544 6.83802 10.9518V10.9022C6.83802 9.97329 6.83802 9.34471 6.91956 8.87817C7.00987 8.35951 7.20289 8.02355 7.55588 7.67055C7.94243 7.28349 8.43218 7.11267 9.03702 7.03113C9.62535 6.95217 10.3762 6.95217 11.3248 6.95217ZM12.3858 11.8549C12.2148 11.8549 12.0507 11.9229 11.9297 12.0438C11.8087 12.1648 11.7408 12.3289 11.7408 12.5C11.7408 12.6711 11.8087 12.8352 11.9297 12.9562C12.0507 13.0771 12.2148 13.1451 12.3858 13.1451C12.5569 13.1451 12.721 13.0771 12.842 12.9562C12.963 12.8352 13.0309 12.6711 13.0309 12.5C13.0309 12.3289 12.963 12.1648 12.842 12.0438C12.721 11.9229 12.5569 11.8549 12.3858 11.8549Z" fill="black"/>
<path fill-rule="evenodd" clip-rule="evenodd" d="M9.23365 13.5631C8.92658 13.207 8.77331 13.029 8.77331 12.5C8.77331 11.971 8.92658 11.793 9.23365 11.4369C9.84675 10.7257 10.8748 9.91961 12.3858 9.91961C13.8969 9.91961 14.9249 10.7257 15.538 11.4369C15.8451 11.793 15.9984 11.971 15.9984 12.5C15.9984 13.029 15.8451 13.207 15.538 13.5631C14.9249 14.2743 13.8969 15.0804 12.3858 15.0804C10.8748 15.0804 9.84675 14.2743 9.23365 13.5631ZM10.9666 12.5C10.9666 12.1236 11.1162 11.7626 11.3823 11.4965C11.6485 11.2303 12.0094 11.0808 12.3858 11.0808C12.7622 11.0808 13.1232 11.2303 13.3894 11.4965C13.6555 11.7626 13.8051 12.1236 13.8051 12.5C13.8051 12.8764 13.6555 13.2374 13.3894 13.5035C13.1232 13.7697 12.7622 13.9192 12.3858 13.9192C12.0094 13.9192 11.6485 13.7697 11.3823 13.5035C11.1162 13.2374 10.9666 12.8764 10.9666 12.5Z" fill="black"/>
</g>
<defs>
<clipPath id="clip0_445_71">
<rect width="12" height="12" fill="white" transform="translate(6.19292 6.30708) scale(1.03215)"/>
</clipPath>
</defs>
</svg>
