<svg width="25" height="25" viewBox="0 0 25 25" fill="none" xmlns="http://www.w3.org/2000/svg">
<rect width="25" height="25" rx="12.1106" fill="#4CBB17" fill-opacity="0.2"/>
<g clip-path="url(#clip0_445_78)">
<path d="M11.8706 17.0156H9.46055L9.12166 15.4915C8.55398 15.2395 7.84609 14.8021 7.35195 14.3105L7.22508 14.1841V10.9952H8.05682L8.46667 10.3114L7.92995 8.96958L8.41765 8.85561C8.89674 8.74465 9.52291 8.77261 10.1353 9.11021L10.1439 9.10548C10.2449 9.04517 10.347 8.98668 10.4501 8.93001C10.6596 8.81181 10.8756 8.70542 11.0969 8.61133C11.2935 8.53177 11.4806 8.46511 11.662 8.41006C11.422 9.10671 11.4668 9.86994 11.7865 10.5338C12.1063 11.1976 12.6752 11.7083 13.3696 11.9549C14.0639 12.2015 14.8275 12.1639 15.4944 11.8504C16.1612 11.5369 16.6772 10.9728 16.9303 10.2808L16.9703 10.3497C18.0304 12.1852 17.5832 14.4765 16.013 15.793L15.7412 17.0161H13.3311L13.1397 16.1559H12.062L11.8706 17.0156ZM9.16037 12.2849H10.0222V11.4231H9.16037V12.2849Z" fill="black"/>
<path d="M14.3211 7.33923C14.8344 7.33923 15.3267 7.54313 15.6896 7.90606C16.0525 8.269 16.2564 8.76125 16.2564 9.27452C16.2564 9.78779 16.0525 10.28 15.6896 10.643C15.3267 11.0059 14.8344 11.2098 14.3211 11.2098C13.8079 11.2098 13.3156 11.0059 12.9527 10.643C12.5897 10.28 12.3858 9.78779 12.3858 9.27452C12.3858 8.76125 12.5897 8.269 12.9527 7.90606C13.3156 7.54313 13.8079 7.33923 14.3211 7.33923Z" fill="black"/>
</g>
<defs>
<clipPath id="clip0_445_78">
<rect width="10" height="10" fill="white" transform="translate(7.22508 7.33923) scale(1.03215)"/>
</clipPath>
</defs>
</svg>
