<svg width="25" height="25" viewBox="0 0 25 25" fill="none" xmlns="http://www.w3.org/2000/svg">
<rect width="25" height="25" rx="12.1106" fill="#4CBB17" fill-opacity="0.2"/>
<path d="M17.5466 8.54192L12.3858 6.82315L7.22508 8.54192V12.5C7.22508 14.5267 8.53282 15.9434 9.75179 16.8229C10.4878 17.3486 11.295 17.7773 12.1515 18.0973C12.21 18.1182 12.2689 18.1382 12.328 18.1572L12.3858 18.1768L12.4447 18.1572C12.5575 18.1199 12.6694 18.08 12.7801 18.0374C13.5779 17.7246 14.3305 17.3166 15.0199 16.8229C16.2394 15.9434 17.5466 14.5267 17.5466 12.5V8.54192ZM11.8703 14.177L9.6816 12.0934L10.4113 11.3985L11.8708 12.7878L14.7903 10.0098L15.5205 10.7041L11.8703 14.177Z" fill="black"/>
</svg>
