<svg width="274" height="229" viewBox="0 0 274 229" fill="none" xmlns="http://www.w3.org/2000/svg">
<path d="M123.313 228.989H59.339L50.3434 188.432C35.2746 181.726 16.4843 170.088 3.36764 157.008L0 153.643V68.7881H22.0781L32.9573 50.5926L18.7104 14.8883L31.6559 11.8557C44.373 8.9032 60.9943 9.64704 77.2504 18.6304L77.4787 18.5045C80.1601 16.8998 82.8699 15.3432 85.6067 13.8354C91.1676 10.6902 96.8996 7.85915 102.776 5.35565C107.993 3.23857 112.959 1.46479 117.776 0C111.405 18.5372 112.593 38.8462 121.081 56.5102C129.569 74.1742 144.67 87.7646 163.101 94.3255C181.532 100.886 201.802 99.8873 219.502 91.5454C237.202 83.2036 250.901 68.1937 257.619 49.7801L258.681 51.6111C286.821 100.453 274.948 161.425 233.269 196.454L226.055 229H162.081L157.001 206.113H128.393L123.313 228.989ZM51.3709 103.108H74.248V80.1746H51.3709V103.108Z" fill="#225C07"/>
</svg>
